<?xml version="1.0" encoding="utf-8"?>
<!-- Generator: Adobe Illustrator 23.0.2, SVG Export Plug-In . SVG Version: 6.00 Build 0)  -->
<svg version="1.1" id="Layer_1" xmlns="http://www.w3.org/2000/svg" xmlns:xlink="http://www.w3.org/1999/xlink" x="0px" y="0px"
	 viewBox="0 0 294 86" style="enable-background:new 0 0 294 86;" xml:space="preserve">
<style type="text/css">
	.st0{fill:#E10514;}
</style>
<path class="st0" d="M224,36.5c-2.2-2.6-6.5-1.1-9.6,0.2c1.9-4.2,4.4-7.9,7-11.2c0.9-1.2,1.8-2.3,2.6-3.5c-3.2-0.6-6.3-0.5-9-0.3
	c-3.1,4-6.5,9.5-8.6,15.6c-0.8,2.4-1.3,4-2.3,5.8c-0.5,1-2,3-2.8,4.2c-2.4,3.8-9.9,12-8.9,8.4c1.7-4.8,3.3-9.1,5.7-13.2
	c0.9-1.6,1.6-3.1,2.8-4.9c-1.6-1.3-5.8-1.6-7.8-0.4c-2.1,4.2-3.7,8.1-5.5,13.3c-1.6,4.1-7.1,8.8-7.3,6.5c-0.2-5,3.5-12.5,6.5-17.6
	c1-1.7,2.4-4.3,3.4-6.1c0.6-1.5-4-0.7-5.9-0.3c-2.7,0.7-6,1.8-8.5,2.2c0.3-3.7,0.6-6.3,0.3-8.9c-1.1-10.9-14.2-14.8-27.8-13.9
	c-7.2,0.5-14.9,2.3-18.2,5.9c-3.5,3.8,0.2,8.9,3.6,10.6c0.6-3.9,4.2-6.5,8.3-8.6c3.4-1.7,7.5-3.1,11.1-3.6
	c6.1-0.8,11.1,0.3,13.7,3.7c3.6,4.7,1.2,13.5-1,18.6c-8.2,3.1-16,7.5-23.1,11.1c3.7-10.9,9.6-19.8,15.3-29
	c-2.8-1.3-7.2-1.6-10.1-0.9c-6.5,8.6-9.5,20.4-11,33.6c-2.8,2.3-8.5,4.8-8.1,9.5c0.4,4,7.1,5.2,11.2,5c9.3-0.5,16.2-4.6,22-9.8
	c6.4-5.8,10.8-13,13.2-20.7c1.5-0.7,2.6-1.2,4.1-1.4c-0.1,0,1,0,0.7,0.7c-2.1,4-6,10.7-5.9,17.5c0,2.5,0.6,5.2,2.3,6.5
	c4.4,3.5,9.8-4.5,11.4-6.4c0.2,2.6-0.5,6.4,2,6.7c2.7,0.3,6.1-3.8,7.7-5.5c2.5-2.8,4.1-5.2,5.9-7.2c-0.2,1-1.4,9,0.2,13.2
	c0.8,2.3,6,1.5,8.5,0.6c6.2-2.5,12.7-12.6,13.5-19.5C225.4,40.5,225.1,37.9,224,36.5 M146.7,62.6c-3,1.7-8.5,4.2-12.1,2.5
	c-2-1.1,1.3-4.3,2.3-6.1c0,0.9,0.6,3.1,1.3,3.7c0,0,2.5,0.1,3.5-1.4c-0.3-1.9-0.8-4.1-0.3-6.2c6.8-5.3,14.3-10,23.1-13.5
	C160.9,49.7,155,57.8,146.7,62.6 M217.8,44.6c-1.6,5.4-5.8,11.9-9.7,14.7c-2.9,1.5,2.1-14.2,4.7-19.7c1.1-0.5,2.6-1.1,4.2-0.7
	C218.6,39.3,218.3,42.6,217.8,44.6 M114.1,31.7c4.6,1,9.6-8.1,3.6-9c-0.7-0.1-2,0.2-2.2,0.2C109.7,24.6,109.1,30.6,114.1,31.7
	 M262.5,31.7c4.6,1,9.6-8.1,3.6-9c-0.7-0.1-2,0.2-2.2,0.2C258.1,24.6,257.5,30.6,262.5,31.7 M118.6,46.2c-2.4,2.7-4.4,5.3-6.7,7.7
	c-1.2,1.2-1.8,2.3-3.4,3.4c-1.9,1.2-1.4-3.4-0.4-6.1c1.1-3,3.7-8.6,5.4-11.4c0.6-0.9,2.5-3.4,3.1-4.4c-1.1-1.4-5.9-1.2-7.6-1.2
	c-0.7,0-1.4,1.5-2,2.4c-0.2,0.3-0.3,0.6-0.5,0.9c-0.5,0.8-0.9,1.7-1.3,2.7c-2.8,5.7-4,7.3-4,7.3l-1.6,2.3c-1,1.5-3,3.6-3,3.6
	c-2.3,2.2-0.1-2.8-0.1-2.8l4.3-10.4c0,0,0.6-1.1-0.9-0.9c-0.6,0.1-2.4,0.5-3.7,0.9c-0.7,0.2-1,0.3-0.7-0.4c0.4-0.9,0-1.5,0-1.5
	c-1.6-2.3-7-4.7-10.6-2.8c-3.1,1.6-3.5,2.7-5.7,7c-0.9,1.9-2.1,3.7-3.8,6c-5.1,6.7-7.1,8.1-8.3,8.8c-2.4,1.5-1.6-2.1-1.6-2.3
	c0.8-4.6,3.3-8.7,5.6-13.3c2-3.9,4.4-8,6.9-11.7c0.7-1.1,2.1-3.1,2.6-4c1.8-3-6.1-1.4-8.4,0c-3.8,2.2-7.1,5.1-10,8.4c0,0,0,0,0,0
	c-2.3,2.5-3.4,3.7-6,7.6c-3,4.5-5.2,9-5.3,9C48.8,50.7,58,31,64.7,20.7c0.8-1.2-0.4-1.7-0.6-1.8c-5.6-1.5-10.5,1.7-14.9,4.4
	C39.9,29.2,31.7,46,31,45.9c-1.1-0.3,2.8-8.6,4.1-11.2c3.3-5.9,3.5-6.2,4.6-7.8c-2-1.5-5.6-3.7-12.9-3.4c-2,0.1-4.1,0.3-6.1,0.7
	c-1.7,0.4-6.3,1.7-4.1,5.3c0.6,1,2.4,2.3,2.4,2.3c0.1,0,1.3,1.1,1.3,1.1c3.1-2.9,5.8-4.6,9.9-4.7c-3,5.2-6.3,12.8-8.5,27.2
	c-0.3,1.8-1.9,13.2,2.6,13.2c0,0,3.3,0.1,6.4-7.8C35,49.4,42.5,39.6,44.4,37.1c0.8-1.1,3.9-4.8,5.3-4.4c0.6,0.1,0.8,0.7,0,2.5
	l-1.2,2.7c-3.5,7.4-6.3,14.6-4.7,24.2c0.3,1.6,1.2,5.4,3.7,4.9c1.1-0.2,2.8-1.9,4.9-6.6c3.2-6.9,8.2-14.6,8.2-14.6
	c1.4-2.2,3.5-4.5,2.8-2.5c-0.1,0.2-3.9,11.2-2.7,17.1c0.4,1.9,1.1,4,2.9,4.5c0,0,2.2,0.5,4.2-2.2c1.1-1.4,6-7.7,6.5-8.4
	c0.9-1.1,1.6-2.7,2.5-3.7c-0.9,4.3-2.9,14.1,3.9,13.2c4.3-0.6,6.9-5.7,8.5-9.1c-0.2,2.3-1.2,6.4,0.1,8.3c2.3,2.7,6.7-2.8,8.8-5.7
	c1.4-1.9,2.8-3.9,4-5.8c-0.7,3.2-1.3,11.6,1.8,13.1c0,0,1.9,0.9,3.8-0.9c4.7-5.1,11.4-14.3,14.6-19.6
	C121.1,42.7,119.9,44.7,118.6,46.2 M91.8,42.5c0,0-0.7,4.7-1.7,6.1c-2.7,3.8-7.4,10.8-8.1,8.9C79.6,51.2,94.1,29.9,91.8,42.5
	 M267.1,46.2c-2.4,2.7-4.4,5.3-6.7,7.7c-1.2,1.2-1.8,2.3-3.4,3.4c-1.9,1.2-1.4-3.4-0.4-6.1c1.1-3,3.7-8.6,5.4-11.4
	c0.6-0.9,2.5-3.4,3.1-4.4c-1.1-1.4-5.9-1.2-7.7-1.2c-0.7,0-1.4,1.5-1.9,2.4c-0.2,0.3-0.3,0.6-0.5,0.9c-0.5,0.8-0.9,1.7-1.3,2.7
	c-2.9,5.7-4,7.3-4,7.3l-1.6,2.3c-1,1.5-3,3.6-3,3.6c-2.3,2.2-0.1-2.8-0.1-2.8l4.3-10.4c0,0,0.6-1.1-0.9-0.9
	c-0.6,0.1-2.4,0.5-3.7,0.9c-0.6,0.2-1,0.3-0.7-0.4c0.4-0.9,0-1.5,0-1.5c-1.6-2.3-6.9-4.7-10.5-2.9c-3.1,1.6-3.9,2.8-5.5,6.4
	c-1.4,3.3-2.8,8.8-2.8,8.8c-0.9,4.3-2.9,14.1,3.9,13.2c4.3-0.6,6.9-5.7,8.6-9.1c-0.2,2.3-1.2,6.4,0.1,8.3c2.3,2.7,6.7-2.8,8.9-5.7
	c1.4-1.9,2.8-3.9,4-5.8c-0.7,3.2-1.3,11.6,1.8,13.1c0,0,1.9,0.9,3.8-0.9c4.7-5.1,11.4-14.3,14.6-19.6
	C269.6,42.7,268.4,44.7,267.1,46.2 M240.3,42.5c0,0-0.7,4.7-1.7,6.1c-2.7,3.8-7.4,10.8-8.1,8.9C228,51.2,242.5,29.9,240.3,42.5"/>
<polygon class="st0" points="208.8,75.6 208,75.6 206.3,71.1 204.6,75.6 203.8,75.6 201.7,69.8 202.7,69.8 204.2,74.5 205.9,69.8 
	206.7,69.8 208.4,74.5 209.8,69.8 210.8,69.8 "/>
<path class="st0" d="M214.7,75.6v-0.6c-0.5,0.5-1,0.6-1.8,0.6c-0.9,0-1.4-0.2-1.8-0.5c-0.3-0.3-0.5-0.7-0.5-1.2c0-1,0.8-1.7,2.2-1.7
	h1.9v-0.5c0-0.9-0.5-1.3-1.6-1.3c-0.8,0-1.2,0.2-1.6,0.7l-0.6-0.5c0.6-0.7,1.2-0.9,2.3-0.9c1.7,0,2.6,0.7,2.6,1.9v3.9H214.7z
	 M214.7,73h-1.8c-1,0-1.4,0.4-1.4,1s0.5,1,1.5,1c0.5,0,1,0,1.4-0.4c0.2-0.2,0.3-0.5,0.3-1V73z"/>
<path class="st0" d="M218.4,75.6c-1.1,0-1.6-0.7-1.6-1.6v-3.5H216v-0.6h0.8v-1.8h0.9v1.8h1.4v0.6h-1.4V74c0,0.5,0.3,0.8,0.9,0.8h0.5
	v0.7H218.4z"/>
<path class="st0" d="M220,73c0,1.3,0.7,2,1.9,2c0.7,0,1.2-0.2,1.7-0.7l0.6,0.5c-0.6,0.6-1.2,0.9-2.3,0.9c-1.7,0-2.8-0.9-2.8-3
	c0-1.9,1-3,2.6-3c1.6,0,2.6,1.1,2.6,2.8V73H220z M223.1,71.4c-0.3-0.5-0.8-0.9-1.5-0.9c-0.7,0-1.2,0.3-1.5,0.9
	c-0.1,0.3-0.2,0.5-0.2,1h3.4C223.3,71.8,223.3,71.7,223.1,71.4"/>
<path class="st0" d="M228.5,70.9c-0.4-0.3-0.6-0.4-1.1-0.4c-0.9,0-1.5,0.7-1.5,1.6v3.6H225v-5.8h0.9v0.7c0.4-0.5,1.1-0.8,1.8-0.8
	c0.6,0,1.1,0.1,1.5,0.5L228.5,70.9z"/>
<path class="st0" d="M231.5,67.2h1v1h-1V67.2z M231.6,69.8h0.9v5.8h-0.9V69.8z"/>
<path class="st0" d="M236.1,75.7c-1.1,0-1.9-0.2-2.6-0.8l0.6-0.6c0.5,0.5,1.2,0.7,2,0.7c1.1,0,1.7-0.3,1.7-1c0-0.5-0.3-0.8-1.1-0.9
	l-1.1-0.1c-1.2-0.1-1.9-0.6-1.9-1.6c0-1.1,1-1.7,2.3-1.7c0.9,0,1.7,0.2,2.3,0.6l-0.6,0.5c-0.5-0.3-1-0.5-1.7-0.5
	c-0.9,0-1.4,0.4-1.4,1c0,0.5,0.3,0.8,1.1,0.8l1,0.1c1.1,0.1,1.9,0.5,1.9,1.6C238.7,75,237.6,75.7,236.1,75.7"/>
<path class="st0" d="M243.3,75.6c-1.1,0-1.6-0.7-1.6-1.5v-6.8h0.9V74c0,0.6,0.2,0.8,0.9,0.8h0.5v0.7H243.3z"/>
<path class="st0" d="M244.7,67.2h1v1h-1V67.2z M244.7,69.8h0.9v5.8h-0.9V69.8z"/>
<path class="st0" d="M248.1,70.5v5.1h-0.9v-5.1h-0.8v-0.6h0.8v-1.1c0-0.9,0.5-1.6,1.6-1.6h0.7V68H249c-0.6,0-0.9,0.3-0.9,0.8v1.1
	h1.4v0.6H248.1z"/>
<path class="st0" d="M250.6,73c0,1.3,0.7,2,1.9,2c0.7,0,1.2-0.2,1.7-0.7l0.6,0.5c-0.6,0.6-1.2,0.9-2.3,0.9c-1.7,0-2.8-0.9-2.8-3
	c0-1.9,1-3,2.6-3c1.6,0,2.6,1.1,2.6,2.8V73H250.6z M253.8,71.4c-0.3-0.5-0.8-0.9-1.5-0.9s-1.2,0.3-1.5,0.9c-0.1,0.3-0.2,0.5-0.2,1
	h3.4C253.9,71.8,253.9,71.7,253.8,71.4"/>
<path class="st0" d="M272.8,36.3v0.8h-1.6v3.8h-1v-3.8h-1.6v-0.8H272.8z M278.2,40.9l-0.2-2.7c0-0.3,0-0.8,0-1.3h-0.1
	c-0.1,0.4-0.3,0.9-0.4,1.4l-0.9,2.5h-1l-0.9-2.6c-0.1-0.4-0.2-0.9-0.3-1.3h-0.1c0,0.4,0,0.9,0,1.3l-0.2,2.7h-1l0.4-4.5h1.5l0.9,2.2
	c0.1,0.3,0.2,0.7,0.3,1.2h0c0.1-0.4,0.2-0.8,0.3-1.1l0.9-2.2h1.4l0.4,4.5H278.2z"/>
</svg>
